<svg xmlns="http://www.w3.org/2000/svg" width="1440" height="560" preserveAspectRatio="none">
  <g fill="none" mask="url(&quot;#a&quot;)">
    <path fill="url(#b)" d="M0 0h1440v560H0z" />
    <path fill="#182f5d" d="M1536 560H0V197.61q20.35-51.64 72-31.29 43.83-28.17 72 15.66 32.49-87.51 120-55.03 42.63-29.37 72 13.26 92.43 20.43 72 112.86-2.12-122.12 120-124.24 30.5-41.5 72-11.01 101.58-18.42 120 83.16 14.49-57.51 72-43.02 39.71-80.29 120-40.59 65.25-54.75 120 10.49 116.45-3.54 120 112.91 39.66-80.34 120-40.68 41.66-30.34 72 11.32 53.89-18.11 72 35.78 1.51-118.49 120-116.98z" />
    <path fill="#25467d" d="M1512 560H0V370.95q32.17-87.83 120-55.67 9.15-62.85 72-53.7 71.54-48.46 120 23.08 29.53-42.47 72-12.94 59.25-12.74 72 46.51 88.92-31.08 120 57.85 1.63-70.36 72-68.73 28.61-43.39 72-14.78 40.22-79.78 120-39.56 65.51-54.49 120 11.02 113.71-6.28 120 107.43 18.55-101.46 120-82.91 7.28-64.72 72-57.44 65.51-54.49 120 11.02 84.2-35.8 120 48.4z" />
    <path fill="#356cb1" d="M1512 560H0V415.43q22.52-49.48 72-26.96 41.43-30.57 72 10.87 10.94-61.07 72-50.13 79.11-40.89 120 38.22 11.44-60.56 72-49.12 41.37-30.63 72 10.74 74.7-45.3 120 29.41 30.48-41.52 72-11.04 61.61-10.39 72 51.23 45.32-26.68 72 18.64 22.38-97.62 120-75.24 25.1-46.91 72-21.81 82.22-37.78 120 44.44 105.67-14.33 120 91.34 4.2-115.8 120-111.61 26.02-45.98 72-19.96 53.89-18.11 72 35.78z" />
    <path fill="#f6f6f6" d="M1488 560H0v-97.02q97.78-22.22 120 75.56 20.79-51.21 72-30.42 24.44-47.56 72-23.12 25.79-46.21 72-20.41 55.96-16.04 72 39.93 26.75-45.25 72-18.49 92.07-27.93 120 64.14 55.11-16.89 72 38.22 11.34-60.66 72-49.32 12.06-59.94 72-47.87 71.18-48.82 120 22.36 36.71-83.3 120-46.59 53.39-18.6 72 34.79 81.43-38.57 120 42.87 65.52-54.48 120 11.04 10.37-109.63 120-99.26z" />
  </g>
  <defs>
    <linearGradient id="b" x1="15.28%" x2="84.72%" y1="-39.29%" y2="139.29%" gradientUnits="userSpaceOnUse">
      <stop offset="0" stop-color="#0e2a47" />
      <stop offset="1" stop-color="#00459e" />
    </linearGradient>
    <mask id="a">
      <path fill="#fff" d="M0 0h1440v560H0z" />
    </mask>
  </defs>
</svg>